<svg width="33" height="33" viewBox="0 0 33 33" fill="none" xmlns="http://www.w3.org/2000/svg">
<path d="M18.1758 11.5996C18.1758 10.7793 18.3516 9.91992 18.7031 9.02148C19.0742 8.12305 19.5625 7.3125 20.168 6.58984C20.7734 5.84766 21.4668 5.23242 22.248 4.74414C23.0488 4.25586 23.8887 4.01172 24.7676 4.01172C25.2168 4.01172 25.666 4.08984 26.1152 4.24609C26.5645 4.40234 26.9648 4.62695 27.3164 4.91992C27.6875 5.21289 27.9805 5.56445 28.1953 5.97461C28.4297 6.38477 28.5469 6.84375 28.5469 7.35156C28.1953 7.35156 27.873 7.3125 27.5801 7.23438C27.3066 7.15625 27.0332 7.06836 26.7598 6.9707C26.4863 6.85352 26.2129 6.75586 25.9395 6.67773C25.6855 6.59961 25.3125 6.67773 25 6.67773C24.1992 6.67773 23.5078 7.08984 23 7.5C22.5117 7.89062 22.293 8.39453 22 9C21.707 9.60547 21.6172 9.79688 21.5 10.5C21.4023 11.1836 21.3105 11.8945 21.3105 12.5C21.3105 12.5 21.3105 12.8559 21.3105 13.1294C21.3301 13.4028 21.3105 13.6875 21.3105 14C21.3301 14.293 21.3105 14.5261 21.3105 14.7995C21.3301 15.073 21.4805 15.4023 21.5 15.5C21.7148 15.9688 21.8047 16.2461 22 16.5C22.2148 16.7539 22.2656 16.8633 22.5 17C22.7344 17.1172 23.0948 17.1562 23.3683 17.1953C23.6417 17.2148 23.96 17.1953 24.3311 17.1953C24.8389 17.1953 25.1289 17.1562 25.5 17C25.8906 16.8438 26.168 16.7148 26.5 16.5C26.832 16.2852 28 15.5 28 15.5C28.293 15.2266 28.1875 15.2148 28.5 15C28.832 14.7656 29.1289 14.6367 29.5 14.5C29.8906 14.3438 30.4609 14.3242 30.9492 14.3242C30.9492 15.2812 30.7734 16.1309 30.4219 16.873C30.0898 17.6152 29.6113 18.25 28.9863 18.7773C28.3809 19.3047 27.6582 19.7148 26.8184 20.0078C25.998 20.2812 25.0996 20.418 24.123 20.418C23.2051 20.418 22.375 20.1055 21.6328 19.4805C20.9102 18.8555 20.2852 18.0938 19.7578 17.1953C19.25 16.2773 18.8594 15.3105 18.5859 14.2949C18.3125 13.2793 18.1758 12.3809 18.1758 11.5996Z" fill="#911AE5"/>
<path d="M2 24.5C2.56641 24.5 3.53125 24.707 4 25C4.46875 25.293 4.47266 25.168 5 25.5C5.50781 25.8516 5.89453 26.207 6.5 26.5C7.10547 26.793 7.69922 27 8.5 27C9.30078 27 10.2383 27.0586 11 26.8438C11.7617 26.6484 12.4834 26.3066 13.0889 25.877C13.6943 25.4668 14.1289 25.1836 14.5 24.5C14.8711 23.8359 15 22.918 15 22C15 20.4766 14.7539 19.1406 14.5 17.5C14.2656 15.8594 13.8906 13.6211 13.5 12C13.1289 10.3594 12.8818 9.04297 12.4326 7.5C12.0029 5.95703 11.7959 4.62695 11.4248 3.31836C11.4248 3.31836 11.4443 3.31449 11.4248 3.23637C11.4052 3.15824 11.3867 2.89844 11.4248 2.89844C11.4248 2.50781 11.5703 2.37109 11.8438 2.23438C12.1172 2.07812 12.4102 2 12.7227 2C12.8008 2 12.918 2.00977 13.0742 2.0293C13.2305 2.04883 13.3281 2.05859 13.3672 2.05859C13.9727 3.58203 14.5391 5.14453 15.0664 6.74609C15.6133 8.32812 16.0918 9.93945 16.502 11.5801C16.9121 13.2207 17.2344 14.8613 17.4688 16.502C17.7031 18.1621 17.8203 19.8027 17.8203 21.4238C17.8203 22.6934 17.5957 23.8457 17.1465 24.8809C16.7168 25.916 16.1113 26.7949 15.3301 27.5176C14.5488 28.2402 13.6113 28.7969 12.5176 29.1875C11.4434 29.5781 10.2715 29.7734 9.00195 29.7734C8.16211 29.7734 7.33203 29.6758 6.51172 29.4805C5.67188 29.3047 4.91992 29.0117 4.25586 28.6016C3.57227 28.1914 3.02539 27.6445 2.61523 26.9609C2.20508 26.2969 2 25.4766 2 24.5Z" fill="#911AE5"/>
<path d="M26.2221 21.8346C26.2887 21.8191 26.4219 21.7883 26.6216 21.742C26.8214 21.6957 27.0264 21.6716 27.2364 21.6697C27.4687 21.6627 27.6754 21.6967 27.8565 21.7716C28.0376 21.8466 28.1539 21.9951 28.2053 22.2171C28.2927 22.5945 28.3041 22.8959 28.2394 23.1214C28.1969 23.3418 28.1082 23.5144 27.9734 23.6392C27.8608 23.7588 27.696 23.8554 27.4792 23.9291C27.2846 23.9976 27.054 24.0627 26.7877 24.1244C26.6101 24.1655 26.4077 24.2007 26.1806 24.2299C25.9535 24.2592 25.7323 24.2636 25.5171 24.2433C25.3019 24.223 25.1097 24.1506 24.9405 24.0261C24.7935 23.8964 24.6891 23.6984 24.6274 23.432C24.5657 23.1656 24.5723 22.9419 24.6473 22.7608C24.7445 22.5745 24.8716 22.4164 25.0286 22.2865C25.1908 22.1787 25.3803 22.0881 25.5971 22.0144C25.814 21.9408 26.0223 21.8808 26.2221 21.8346Z" fill="white"/>
</svg>
