<?xml version="1.0" encoding="utf-8"?>
<!-- Generator: Adobe Illustrator 16.0.3, SVG Export Plug-In . SVG Version: 6.00 Build 0)  -->
<!DOCTYPE svg PUBLIC "-//W3C//DTD SVG 1.1//EN" "http://www.w3.org/Graphics/SVG/1.1/DTD/svg11.dtd">
<svg version="1.1" xmlns="http://www.w3.org/2000/svg" xmlns:xlink="http://www.w3.org/1999/xlink" x="0px" y="0px"
	 width="430.334px" height="466.333px" viewBox="0 0 430.334 466.333" enable-background="new 0 0 430.334 466.333"
	 xml:space="preserve">
<g id="BACKGROUND" display="none">
	<g display="inline">
		<rect fill="#E6D9CA" width="500" height="500"/>
		<path fill="#D4C2AE" d="M263.344,418.481c-37.313-0.001-83.314,1.902-120.581,2.332c-24.182,0.279-144.374,0.077-131.465,7.369
			c4.969,2.807,31.144,3.197,44.401,3.583c134.035,3.901,265.025,4.515,398.912,0.354c9.157-0.285,18.621-0.614,26.404-1.761
			s26.147-5.683-36.158-7.659C440.961,422.576,337.972,418.484,263.344,418.481z"/>
	</g>
</g>
<g id="OBJECTS">
	<g>
		<defs>
			<rect id="SVGID_1_" x="308.296" y="123.084" width="82.037" height="303.015"/>
		</defs>
		<clipPath id="SVGID_2_">
			<use xlink:href="#SVGID_1_"  overflow="visible"/>
		</clipPath>
		<rect x="308.296" y="123.084" clip-path="url(#SVGID_2_)" fill="#FFFFFF" width="82.037" height="303.015"/>
		<path clip-path="url(#SVGID_2_)" fill="#9998EB" d="M326.459,119.571h-25.308v91.167c8.555-6.443,18.295-17.731,23.682-21.49
			c6.572-4.586,13.961-8.025,20.009-13.287c10.925-9.507,14.014-26.492,7.521-39.606
			C346.912,125.345,337.551,124.215,326.459,119.571z"/>
		<path clip-path="url(#SVGID_2_)" fill="#DD5572" d="M399.587,434.965v-48.279c-2.313-0.28-4.628-0.524-6.944-0.527
			c-12.72-0.017-25.112,7.907-30.435,19.46c-3.174,6.888-4.183,15.117-9.632,20.392c-4.665,4.517-11.48,5.761-17.496,8.205
			c-0.552,0.225-1.102,0.48-1.648,0.75H399.587z"/>
		<rect x="383.501" y="123.084" opacity="0.71" clip-path="url(#SVGID_2_)" fill="#C1CAD4" width="6.832" height="303.015"/>
	</g>
	<g>
		<defs>
			
				<rect id="SVGID_3_" x="233.596" y="106.657" transform="matrix(0.9944 0.1061 -0.1061 0.9944 29.5641 -26.3544)" width="57.944" height="316.261"/>
		</defs>
		<clipPath id="SVGID_4_">
			<use xlink:href="#SVGID_3_"  overflow="visible"/>
		</clipPath>
		
			<rect x="233.596" y="106.657" transform="matrix(0.9944 0.1061 -0.1061 0.9944 29.5641 -26.3544)" clip-path="url(#SVGID_4_)" fill="#DA605E" width="57.944" height="316.261"/>
		<g clip-path="url(#SVGID_4_)">
			<g>
				<path fill="#FFFFFF" d="M263.727,77.65c19.872-1.637,37.148,22.635,39.723,40.144c3.623,24.647-25.763,26.902-43.862,29.562
					C210.492,154.57,227.271,80.653,263.727,77.65z M293.288,129.355c7.486-10.536-6.335-30.364-13.877-36.951
					c-13.364-11.672-26.311-2.602-33.635,11.209c-5.143,9.697-11.375,31.208,3.189,35.491
					C256.359,141.282,287.666,133.942,293.288,129.355z"/>
			</g>
			<g>
				<path fill="#FFFFFF" d="M206.448,411.822c7.869-13.118,30.728-13.029,42.792-6.802c16.984,8.768,5.243,28.094-1.195,40.564
					C230.58,479.415,192.012,435.889,206.448,411.822z M233.169,445.091c8.387,0.054,13.776-14.676,14.468-21.138
					c1.225-11.449-8.418-14.951-18.485-13.699c-7.069,0.879-20.822,5.579-17.673,14.914
					C213.6,431.454,226.695,443.258,233.169,445.091z"/>
			</g>
			<g>
				<path fill="#FFFFFF" d="M265.38,92.545c13.197-1.087,17.158,11.24,14.129,21.302c-1.981,6.582-6.551,12.04-14.883,12.679
					c-10.739,0.825-15.701-8.297-16.069-15.561C248.084,101.628,255.046,93.397,265.38,92.545z M264.712,118.417
					c9.097-0.75,12.699-15.802,2.442-17.095C258.801,100.269,249.913,119.636,264.712,118.417z"/>
			</g>
			<g>
				<path fill="#FFFFFF" d="M286.522,325.211c13.785-1.136,17.923,11.74,14.758,22.25c-2.069,6.875-6.842,12.576-15.546,13.244
					c-11.217,0.862-16.399-8.666-16.783-16.253C268.457,334.698,275.729,326.101,286.522,325.211z M285.819,351.84
					c9.097-0.749,12.698-15.801,2.442-17.094C279.907,333.692,271.021,353.06,285.819,351.84z"/>
			</g>
		</g>
		
			<rect x="284.564" y="109.367" transform="matrix(0.9944 0.1061 -0.1061 0.9944 29.9932 -29.0327)" opacity="0.71" clip-path="url(#SVGID_4_)" fill="#C1CAD4" width="6.832" height="316.261"/>
	</g>
	<g>
		<defs>
			<rect id="SVGID_5_" x="41.73" y="136.378" width="69.855" height="289.72"/>
		</defs>
		<clipPath id="SVGID_6_">
			<use xlink:href="#SVGID_5_"  overflow="visible"/>
		</clipPath>
		<rect x="41.73" y="136.378" clip-path="url(#SVGID_6_)" fill="#393939" width="69.855" height="289.72"/>
		<path clip-path="url(#SVGID_6_)" fill="#FFFFFF" d="M96.115,385.188c0,10.098-3.942,11.286-12.401,11.286
			c-11.986,0-10.932,15.092-10.932,15.092s0.688,8.375-8.618,8.375c-7.528,0-7.925,4.542-7.925,10.936
			c0,2.549-2.959,4.039-6.518,4.911c-7.135,1.747-12.108,8.213-12.108,15.56v3.538c0,0,25.269,2.683,25.269-14.667
			c0-8.459,1.189-12.401,11.286-12.401c10.245,0,13.208-5.026,13.208-16.251h-0.002c0,0-0.71-8.449,5.684-8.449
			c6.394,0,10.936-0.397,10.936-7.926c0-5.871,5.16-8.112,10.588-8.846c7.127-0.964,12.377-7.172,12.377-14.364l0,0
			C107.165,371.98,96.115,371.98,96.115,385.188z"/>
		<rect x="103.314" y="136.378" opacity="0.71" clip-path="url(#SVGID_6_)" fill="#C1CAD4" width="8.271" height="289.72"/>
	</g>
	<g>
		<defs>
			<rect id="SVGID_7_" x="165.207" y="92.566" width="49.621" height="333.532"/>
		</defs>
		<clipPath id="SVGID_8_">
			<use xlink:href="#SVGID_7_"  overflow="visible"/>
		</clipPath>
		<rect x="165.207" y="92.566" clip-path="url(#SVGID_8_)" fill="#9C6F46" width="49.621" height="333.532"/>
		<path clip-path="url(#SVGID_8_)" fill="#BFA080" d="M195.868,308.35c-10.14,18.228-56.1-23.606-57.994-38.796
			c-2.65-21.257,32.036,1.994,37.298,5.646C182.432,280.236,203.139,295.277,195.868,308.35z"/>
		<path clip-path="url(#SVGID_8_)" fill="#D19C44" d="M218.574,433.926c-10.946,19.677-60.56-25.482-62.604-41.88
			c-2.86-22.947,34.583,2.152,40.263,6.094C204.07,403.577,226.424,419.814,218.574,433.926z"/>
		<path clip-path="url(#SVGID_8_)" fill="#D19C44" d="M186.208,322.126c6.61-11.883,36.574,15.39,37.808,25.292
			c1.728,13.858-20.885-1.3-24.316-3.68C194.967,340.454,181.467,330.648,186.208,322.126z"/>
		<path display="none" clip-path="url(#SVGID_8_)" fill="#FDF5DF" d="M179.555,344.579c-3.915,7.038-21.661-9.114-22.392-14.979
			c-1.023-8.207,12.37,0.771,14.401,2.18C174.367,333.725,182.362,339.532,179.555,344.579z"/>
		<path clip-path="url(#SVGID_8_)" fill="#BFA080" d="M174.798,362.252c4.735-8.513,26.198,11.023,27.082,18.116
			c1.238,9.927-14.96-0.931-17.417-2.636C181.073,375.38,171.402,368.356,174.798,362.252z"/>
		<path clip-path="url(#SVGID_8_)" fill="#FDF5DF" d="M211.365,367.072c-2.241,4.028-12.398-5.217-12.816-8.573
			c-0.585-4.698,7.08,0.44,8.243,1.247C208.396,360.859,212.972,364.184,211.365,367.072z"/>
		<path clip-path="url(#SVGID_8_)" fill="#FDF5DF" d="M198.917,271.63c3.255-5.852,18.009,7.577,18.617,12.454
			c0.851,6.823-10.284-0.641-11.973-1.813C203.23,280.654,196.582,275.826,198.917,271.63z"/>
		<rect x="165.207" y="92.566" clip-path="url(#SVGID_8_)" fill="none" width="49.621" height="333.532"/>
		<rect x="207.996" y="92.566" opacity="0.71" clip-path="url(#SVGID_8_)" fill="#C1CAD4" width="6.832" height="333.532"/>
	</g>
	<g>
		<defs>
			<rect id="SVGID_9_" x="111.585" y="72.587" width="53.621" height="353.511"/>
		</defs>
		<clipPath id="SVGID_10_">
			<use xlink:href="#SVGID_9_"  overflow="visible"/>
		</clipPath>
		<rect x="111.585" y="72.587" clip-path="url(#SVGID_10_)" fill="#537163" width="53.621" height="353.511"/>
		<rect x="111.585" y="72.587" clip-path="url(#SVGID_10_)" fill="none" width="53.621" height="353.511"/>
		<path clip-path="url(#SVGID_10_)" fill="#FDF5DF" d="M114.736,229.936c-2.078,3.274-4.24,6.527-6.575,9.644
			c-1.445-0.6-2.884-1.214-4.314-1.838c-0.227-0.099-0.452-0.203-0.678-0.303c2.295-3.104,4.432-6.329,6.535-9.559
			c9.837-15.101,19.538-30.043,26.744-46.644c4.821-11.104,8.556-22.714,10.552-34.668c0.245-1.463,3.634-2.239,3.48-0.444
			c-1.945,22.689-11.627,44.278-23.063,63.69C123.393,216.647,118.985,223.241,114.736,229.936z"/>
		<path clip-path="url(#SVGID_10_)" fill="#FDF5DF" d="M168.284,180.41c-4.196,6.348-9.49,7.499-13.314,7.626
			c-7.66,0.255-16.742-3.594-16.742-3.594S154.123,168.299,168.284,180.41z"/>
		<path clip-path="url(#SVGID_10_)" fill="#FDF5DF" d="M128.081,202.041c-16.483-5.544-12.944-27.425-12.944-27.425
			s5.233,1.504,9.443,6.577C129.105,186.648,130.345,195.02,128.081,202.041z"/>
		<path clip-path="url(#SVGID_10_)" fill="#FFB838" d="M159.36,166.792c-5.592-0.001-9.85-4.683-11.44-9.032
			c-0.405-1.109-0.773-2.351-1.102-3.717c-1.306,2.052-2.509,3.659-3.676,4.918c-2.668,2.88-6.417,4.6-10.027,4.6
			c-2.862,0-5.468-1.055-7.338-2.972c-2.148-2.203-3.246-4.962-3.174-7.979c0.098-4.116,2.394-7.688,4.51-9.659
			c0.181-0.168,0.368-0.337,0.561-0.507c-1.07-0.047-2.04-0.143-2.936-0.29c-3.688-0.609-6.955-2.666-8.963-5.644
			c-1.795-2.658-2.417-5.77-1.75-8.761c1.607-7.181,7.717-9.729,12.461-9.729c1.121,0,2.213,0.132,3.244,0.392
			c0.658,0.165,1.341,0.368,2.05,0.609c-0.417-0.801-0.766-1.555-1.053-2.267c-1.454-3.618-1.426-7.576,0.075-10.859
			c1.23-2.689,3.349-4.666,5.965-5.565c1.232-0.423,2.489-0.638,3.735-0.638c6.015,0,10.295,4.854,11.728,9.363
			c0.313,0.983,0.586,2.063,0.821,3.234c0.661-1.213,1.317-2.25,1.984-3.143c2.542-3.405,6.48-5.438,10.534-5.438
			c2.705,0,5.191,0.888,7.19,2.568c2.65,2.223,4.18,5.137,4.423,8.425c0.255,3.428-1.03,7.19-3.354,9.818
			c-0.96,1.085-2.129,2.194-3.496,3.316c1.039,0.077,1.984,0.19,2.851,0.342c3.933,0.689,7.459,2.866,9.433,5.823
			c1.521,2.276,2.055,4.889,1.504,7.357c-1.145,5.115-5.754,8.42-11.744,8.42c-1.232,0-2.489-0.148-3.635-0.43
			c-0.336-0.083-0.68-0.174-1.032-0.275c0.091,0.192,0.179,0.381,0.262,0.568c1.622,3.649,1.782,7.792,0.428,11.08
			c-1.043,2.531-2.916,4.431-5.271,5.349C161.896,166.55,160.629,166.792,159.36,166.792L159.36,166.792z"/>
		<circle clip-path="url(#SVGID_10_)" fill="#FDF5DF" cx="149.047" cy="133.242" r="12.75"/>
		<rect x="158.375" y="72.587" opacity="0.71" clip-path="url(#SVGID_10_)" fill="#C1CAD4" width="6.832" height="353.511"/>
	</g>
</g>
<g id="TEXTS">
	<g>
		<text transform="matrix(0 1 -1 0 323.9805 145.8906)" fill="#2E2E2E" font-family="'Alice-Regular'" font-size="38.385">DESIGN</text>
		
			<text id="RUINED_1_" transform="matrix(0 1 -1 0 353.3086 148.1309)" fill="#2E2E2E" font-family="'Alice-Regular'" font-size="23.4941">RUINED BY</text>
		<text transform="matrix(0 1 -1 0 351.6641 327.8086)" fill="#2E2E2E" font-family="'JosefinSans-Regular'" font-size="5">AND WHAT WE CAN DO TO FIX IT</text>
		<text transform="matrix(0 1 -1 0 359.3359 303.0176)" fill="#2E2E2E" font-family="'JosefinSans-Regular'" font-size="5">HOW DESIGNERS DESTROYED THE WORLD,</text>
		<text transform="matrix(0 1 -1 0 328.4424 350.4736)" fill="#2E2E2E" font-family="'JosefinSans-Bold'" font-size="8.5">MONTEIRO</text>
		<text transform="matrix(0 1 -1 0 336.1133 362.3574)" fill="#2E2E2E" font-family="'JosefinSans-Bold'" font-size="8.5804">MIKE</text>
	</g>
	<g>
		<text transform="matrix(0.9944 0.1061 -0.1061 0.9944 224.4575 381.8633)"><tspan x="0" y="0" fill="#514C4C" font-family="'JosefinSans-Bold'" font-size="7">Anna Rosling, </tspan><tspan x="0.388" y="8.504" fill="#514C4C" font-family="'JosefinSans-Bold'" font-size="7">Hans Rosling, </tspan><tspan x="-2.001" y="17.008" fill="#514C4C" font-family="'JosefinSans-Bold'" font-size="7">and Ola Rosling</tspan></text>
		<g>
			
				<text transform="matrix(-0.1061 0.9944 -0.9944 -0.1061 264.082 164.7793)" fill="#FFFFFF" font-family="'Alata-Regular'" font-size="24.8976">FACTFULNESS</text>
		</g>
	</g>
	<g>
		<text transform="matrix(0 1 -1 0 74.7876 274.6729)" fill="#C3974D" font-family="'JosefinSans-Bold'" font-size="15.66">RESEARCH</text>
		<g>
			<text transform="matrix(0 1 -1 0 74.7876 170.0874)" fill="#FFFFFF" font-family="'JosefinSans-Italic'" font-size="15.66">JUST ENOUGH</text>
		</g>
	</g>
	<g>
		<text transform="matrix(0 1 -1 0 186.8647 116.604)" fill="#FFFFFF" font-family="'LucidaSansUnicode'" font-size="10.31">WHEN WE CEASE TO UNDERSTAND THHE WORLD</text>
	</g>
	<g>
		<text transform="matrix(0 1 -1 0 62.3647 171.604)" fill="#FFFFFF" font-family="'Alata-Regular'" font-size="6.31">ERIKA HALL</text>
	</g>
	<g>
		<text transform="matrix(0 1 -1 0 177.3647 326.6035)" fill="#FFFFFF" font-family="'LucidaSansUnicode'" font-size="6.31">BENJAMIN LABATUT</text>
	</g>
	<g>
		<g>
			<text transform="matrix(0 1 -1 0 129.1636 248.8716)" fill="#FFFFFF" font-family="'Alata-Regular'" font-size="21.95">ikigai</text>
		</g>
		<text transform="matrix(0 1 -1 0 136.2148 357.5791)"><tspan x="0" y="0" fill="#FFB838" font-family="'JosefinSans-Regular'" font-size="4.96">HECTOR GARCIA &amp;</tspan><tspan x="-4.605" y="5.952" fill="#FFB838" font-family="'JosefinSans-Regular'" font-size="4.96"> FRANCESC MIRALLES</tspan></text>
	</g>
</g>
</svg>
